<svg width="1080" height="1080" viewBox="0 0 1080 1080" fill="none" xmlns="http://www.w3.org/2000/svg">
<path d="M330.474 571.152V469.295C330.474 456.644 340.722 446.394 353.372 446.394H412.705V472.182H357.652V495.879H407.13V521.667H357.652V545.364H444.799V423H339.207C319.21 423 303 439.212 303 459.212V588H444.807V571.144H330.474V571.152Z" fill="white"/>
<path d="M495.035 457.091H476.128V459.652H495.035V466.348H476.128V468.909H495.035V476.788H465.887V449.212H495.035V457.091Z" fill="white"/>
<path d="M521.486 449.212H531.727V476.788H518.334L506.439 460.518V476.788H496.198V449.212H509.59L521.486 465.482V449.212Z" fill="white"/>
<path d="M566.798 449.212V457.879H554.981V476.788H544.74V457.879H532.923V449.212H566.798Z" fill="white"/>
<path d="M597.122 457.091H578.216V459.652H597.122V466.348H578.216V468.909H597.122V476.788H567.975V449.212H597.122V457.091Z" fill="white"/>
<path d="M630.505 459.77C630.505 463.788 628.654 467.097 625.621 468.87L630.505 476.788H618.374L614.553 470.327H608.526V476.788H598.285V449.212H619.949C626.212 449.212 630.505 453.624 630.505 459.77ZM608.526 457.879V461.661H617.98C619.004 461.661 620.264 461.661 620.264 459.77C620.264 457.879 619.004 457.879 617.98 457.879H608.526Z" fill="white"/>
<path d="M653.337 449.212C659.6 449.212 663.893 453.624 663.893 459.77C663.893 465.915 659.6 470.327 653.337 470.327H641.915V476.788H631.673V449.212H653.337ZM651.368 461.661C652.392 461.661 653.652 461.661 653.652 459.77C653.652 457.879 652.392 457.879 651.368 457.879H641.915V461.661H651.368Z" fill="white"/>
<path d="M697.281 459.77C697.281 463.788 695.43 467.097 692.397 468.87L697.281 476.788H685.15L681.329 470.327H675.303V476.788H665.062V449.212H686.725C692.988 449.212 697.281 453.624 697.281 459.77ZM675.303 457.879V461.661H684.756C685.78 461.661 687.04 461.661 687.04 459.77C687.04 457.879 685.78 457.879 684.756 457.879H675.303Z" fill="white"/>
<path d="M708.691 449.212V476.788H698.45V449.212H708.691Z" fill="white"/>
<path d="M709.865 467.058H720.106C720.106 468.397 721.366 469.303 727.865 469.303C733.931 469.303 734.837 468.909 734.837 467.885C734.837 466.703 733.931 466.545 727.471 466.348C715.024 465.955 710.258 463.906 710.258 457.485C710.258 451.418 716.206 448.818 727.077 448.818C737.831 448.818 743.896 451.418 743.896 458.47H733.655C733.655 457.012 731.292 456.697 726.29 456.697C721.484 456.697 720.5 456.933 720.5 457.997C720.5 459.061 721.484 459.021 727.471 459.258C738.343 459.691 745.078 460.439 745.078 467.648C745.078 475.252 738.776 477.182 727.471 477.182C716.167 477.182 709.865 475.252 709.865 467.058Z" fill="white"/>
<path d="M775.41 457.091H756.503V459.652H775.41V466.348H756.503V468.909H775.41V476.788H746.262V449.212H775.41V457.091Z" fill="white"/>
<path d="M515.093 570.424C477.764 570.424 461.767 556.242 461.767 526.667C461.767 497.212 477.764 483.152 515.093 483.152C552.3 483.152 568.419 497.333 568.419 526.667C568.419 556.121 552.3 570.424 515.093 570.424ZM515.093 543.758C533.636 543.758 536.908 535.636 536.908 526.667C536.908 517.818 533.757 509.818 515.093 509.818C496.429 509.818 493.277 517.697 493.277 526.667C493.277 535.758 496.55 543.758 515.093 543.758Z" fill="white"/>
<path d="M649.91 484.364H681.421V569.212H640.214L603.613 519.152V569.212H572.102V484.364H613.309L649.91 534.424V484.364Z" fill="white"/>
<path d="M776 508.606H717.826V516.485H776V537.091H717.826V544.97H776V569.212H686.315V484.364H776V508.606Z" fill="white"/>
</svg>
