<?xml version="1.0" encoding="UTF-8"?>
<svg version="1.1" xmlns="http://www.w3.org/2000/svg" width="696" height="796">
<path d="M0 0 C229.68 0 459.36 0 696 0 C696 262.68 696 525.36 696 796 C466.32 796 236.64 796 0 796 C0 533.32 0 270.64 0 0 Z " fill="#437DE3" transform="translate(0,0)"/>
<path d="M0 0 C4.70998405 0.01745398 9.41994962 0.01141576 14.12995696 0.0083909 C22.26824793 0.00630476 30.40640952 0.0187361 38.54466796 0.04134226 C50.31085475 0.07400447 62.0769797 0.08428374 73.84320691 0.08929422 C92.93823053 0.0980247 112.03318536 0.12457895 131.12817168 0.16250467 C149.66495206 0.19928317 168.20171369 0.22756628 186.73852324 0.24453592 C187.88326207 0.24558682 189.0280009 0.24663771 190.20742878 0.24772045 C195.95088341 0.25294102 201.69433817 0.25799575 207.43779302 0.26296806 C255.00180197 0.30436004 302.56568354 0.37805987 350.12963653 0.46426249 C350.12963653 37.09426249 350.12963653 73.72426249 350.12963653 111.46426249 C246.83963653 111.46426249 143.54963653 111.46426249 37.12963653 111.46426249 C37.12963653 154.03426249 37.12963653 196.60426249 37.12963653 240.46426249 C128.53963653 240.46426249 219.94963653 240.46426249 314.12963653 240.46426249 C314.12963653 276.10426249 314.12963653 311.74426249 314.12963653 348.46426249 C222.71963653 348.46426249 131.30963653 348.46426249 37.12963653 348.46426249 C37.12963653 394.00426249 37.12963653 439.54426249 37.12963653 486.46426249 C177.70963653 486.46426249 318.28963653 486.46426249 463.12963653 486.46426249 C463.12963653 550.48426249 463.12963653 614.50426249 463.12963653 680.46426249 C233.44963653 680.46426249 3.76963653 680.46426249 -232.87036347 680.46426249 C-232.87036347 680.13426249 -232.87036347 679.80426249 -232.87036347 679.46426249 C-3.52036347 679.46426249 225.82963653 679.46426249 462.12963653 679.46426249 C462.12963653 652.40426249 462.12963653 625.34426249 462.12963653 597.46426249 C276.33963653 597.46426249 90.54963653 597.46426249 -100.87036347 597.46426249 C-100.91161347 511.16926249 -100.95286347 424.87426249 -100.99536347 335.96426249 C-101.02267549 295.06972147 -101.02267549 295.06972147 -101.05053926 253.34902811 C-101.05957246 220.09609842 -101.05957246 220.09609842 -101.06125093 204.53640604 C-101.06323947 192.9364421 -101.07186071 181.33650346 -101.08371033 169.73654665 C-101.09563858 157.89921794 -101.10003161 146.06190391 -101.09725337 134.22456941 C-101.09604934 127.80377995 -101.09794905 121.38303448 -101.10879374 114.96225309 C-101.11855 109.1504938 -101.11899475 103.33880947 -101.11216569 97.52704668 C-101.1113209 95.43157569 -101.11382867 93.33609994 -101.12012863 91.24063826 C-101.19295741 65.49286262 -99.51592502 38.3928915 -80.53442597 18.86660624 C-58.14444665 -1.32377102 -28.16409218 -0.1311684 0 0 Z " fill="#FDFEFE" transform="translate(232.8703634738922,115.53573751449585)"/>
<path d="M0 0 C40.26 0 80.52 0 122 0 C122 0.33 122 0.66 122 1 C120.70642578 1.12955078 120.70642578 1.12955078 119.38671875 1.26171875 C92.33674818 4.37517893 67.76317164 14.13851384 47 32 C45.60007812 33.16402344 45.60007812 33.16402344 44.171875 34.3515625 C19.13167792 56.04869662 5.33273744 86.58942486 1 119 C0.67 119 0.34 119 0 119 C0 79.73 0 40.46 0 0 Z " fill="#FCFDFE" transform="translate(0,0)"/>
<path d="M0 0 C0.66 0 1.32 0 2 0 C2 198.66 2 397.32 2 602 C-138.58 602 -279.16 602 -424 602 C-424 556.46 -424 510.92 -424 464 C-332.92 464 -241.84 464 -148 464 C-148 464.33 -148 464.66 -148 465 C-238.75 465 -329.5 465 -423 465 C-423 509.22 -423 553.44 -423 599 C-370.10618883 599.02203542 -317.21238198 599.04050344 -264.31856754 599.05106533 C-258.07744996 599.05231607 -251.8363324 599.05361039 -245.59521484 599.05493164 C-244.35269296 599.05519395 -243.11017108 599.05545626 -241.82999702 599.05572652 C-221.69728551 599.06008074 -201.56457686 599.06796694 -181.43186705 599.0771528 C-160.78199165 599.08649621 -140.13211775 599.09205707 -119.48224032 599.09408849 C-106.73475517 599.09546229 -93.98727807 599.09980514 -81.2397954 599.10791647 C-72.50465441 599.1131924 -63.76951759 599.11480235 -55.03437512 599.11350138 C-49.99071263 599.11285933 -44.94706423 599.11386054 -39.90340424 599.11920547 C-35.28812804 599.12406084 -30.67287546 599.12432451 -26.05759819 599.12089889 C-24.38590041 599.12047532 -22.71420117 599.12175302 -21.04250626 599.12488318 C-18.77334622 599.12888579 -16.50427183 599.12673922 -14.23511314 599.12304783 C-12.97368221 599.12342755 -11.71225127 599.12380727 -10.41259515 599.1241985 C-6.54827559 599.05669469 -6.54827559 599.05669469 -1 598 C-0.67 400.66 -0.34 203.32 0 0 Z " fill="#6695E3" transform="translate(694,0)"/>
<path d="M0 0 C127.05 0 254.1 0 385 0 C385 36.63 385 73.26 385 111 C281.71 111 178.42 111 72 111 C72 110.01 72 109.02 72 108 C174.63 108 277.26 108 383 108 C383 72.69 383 37.38 383 1 C256.61 1 130.22 1 0 1 C0 0.67 0 0.34 0 0 Z " fill="#DEF1FE" transform="translate(198,116)"/>
<path d="M0 0 C0.66 0 1.32 0 2 0 C2.33 36.3 2.66 72.6 3 110 C1.515 110.495 1.515 110.495 0 111 C0 74.37 0 37.74 0 0 Z " fill="#5884CF" transform="translate(583,116)"/>
<path d="M0 0 C1.11369426 3.47506105 0.98791738 6.44403991 0.6875 10.0625 C0.60886719 11.10535156 0.53023438 12.14820312 0.44921875 13.22265625 C0 16 0 16 -2 19 C-2.40268166 21.30143756 -2.7272946 23.61706919 -3 25.9375 C-3.88964435 33.49153373 -3.88964435 33.49153373 -6 37 C-6.6794048 24.54424535 -3.6093672 11.85203555 0 0 Z " fill="#5E8AD9" transform="translate(6,91)"/>
<path d="M0 0 C0.66 0.33 1.32 0.66 2 1 C0.09749926 3.60713065 -1.43928635 5.67291704 -4.25 7.3125 C-8.4431465 9.88556717 -11.61279217 13.46150249 -15 17 C-15.66 16.67 -16.32 16.34 -17 16 C-6.81093394 4.29384966 -6.81093394 4.29384966 0 0 Z " fill="#E5F4FD" transform="translate(162,127)"/>
<path d="M0 0 C0 0.66 0 1.32 0 2 C-5.83799592 3.69832609 -10.93107371 4.25287193 -17 4 C-11.77468437 0.51645625 -6.1868663 -0.30934332 0 0 Z " fill="#5A86D2" transform="translate(108,3)"/>
<path d="M0 0 C0.33 0.66 0.66 1.32 1 2 C0.67 2.66 0.34 3.32 0 4 C0.66 4 1.32 4 2 4 C1.67 4.99 1.34 5.98 1 7 C0.01 7.33 -0.98 7.66 -2 8 C-2.33 8.99 -2.66 9.98 -3 11 C-3.66 11 -4.32 11 -5 11 C-5 11.66 -5 12.32 -5 13 C-5.66 12.67 -6.32 12.34 -7 12 C-4.69 8.04 -2.38 4.08 0 0 Z " fill="#5885D7" transform="translate(20,62)"/>
</svg>
